<svg preserveAspectRatio="none" width="100%" height="100%" overflow="visible" style="display: block;" viewBox="0 0 124 12" fill="none" xmlns="http://www.w3.org/2000/svg">
<path id="Vector" d="M5.14799 2.45502C5.09599 2.02302 4.88899 1.68701 4.52499 1.44901C4.16199 1.21001 3.716 1.091 3.187 1.091C2.801 1.091 2.46299 1.15302 2.17299 1.27802C1.88599 1.40302 1.662 1.57501 1.5 1.79401C1.341 2.01301 1.26099 2.26101 1.26099 2.54001C1.26099 2.77301 1.31699 2.97302 1.42699 3.14102C1.54099 3.30502 1.686 3.44302 1.862 3.55402C2.038 3.66202 2.223 3.75102 2.416 3.82202C2.609 3.89102 2.78699 3.94601 2.94899 3.98901L3.83499 4.22702C4.06199 4.28702 4.31499 4.369 4.59399 4.474C4.87499 4.58 5.14299 4.723 5.39899 4.905C5.65699 5.084 5.87099 5.314 6.03799 5.595C6.20599 5.876 6.28999 6.22201 6.28999 6.63101C6.28999 7.10201 6.16599 7.52803 5.91899 7.90903C5.67499 8.29003 5.31699 8.59202 4.84499 8.81702C4.37599 9.04102 3.80699 9.15302 3.13599 9.15302C2.51099 9.15302 1.97 9.05301 1.513 8.85101C1.058 8.64901 0.699995 8.36802 0.438995 8.00702C0.179995 7.64602 0.034 7.227 0 6.75H1.09099C1.11899 7.08 1.22999 7.35202 1.42299 7.56802C1.61899 7.78102 1.86599 7.94001 2.16499 8.04501C2.46599 8.14801 2.78999 8.19901 3.13599 8.19901C3.53999 8.19901 3.90199 8.13402 4.22299 8.00302C4.54399 7.86902 4.79799 7.68501 4.98599 7.44901C5.17299 7.21001 5.267 6.93201 5.267 6.61401C5.267 6.32401 5.18599 6.08801 5.02399 5.90601C4.86199 5.72401 4.64899 5.57701 4.38499 5.46301C4.12099 5.34901 3.835 5.25001 3.528 5.16501L2.45399 4.858C1.77299 4.662 1.23299 4.38201 0.834991 4.01801C0.436991 3.65501 0.237991 3.179 0.237991 2.591C0.237991 2.102 0.370995 1.67601 0.634995 1.31201C0.901994 0.946012 1.26 0.662022 1.709 0.460022C2.16 0.256022 2.66499 0.153015 3.22099 0.153015C3.78399 0.153015 4.28399 0.254024 4.72099 0.456024C5.15899 0.655024 5.50599 0.928017 5.76099 1.27402C6.01999 1.62102 6.156 2.01402 6.17 2.45502H5.14799ZM7.89099 11.455V2.45502H8.862V3.49402H8.98199C9.05599 3.38102 9.158 3.236 9.289 3.06C9.422 2.881 9.61199 2.722 9.85999 2.582C10.11 2.44 10.448 2.36902 10.874 2.36902C11.425 2.36902 11.911 2.50702 12.331 2.78302C12.752 3.05802 13.08 3.44902 13.316 3.95502C13.551 4.46002 13.669 5.05702 13.669 5.74402C13.669 6.43702 13.551 7.038 13.316 7.547C13.08 8.053 12.753 8.44502 12.335 8.72302C11.918 8.99902 11.436 9.13602 10.891 9.13602C10.47 9.13602 10.134 9.06701 9.88098 8.92801C9.62798 8.78501 9.433 8.62501 9.297 8.44601C9.161 8.26401 9.05599 8.11402 8.98199 7.99402H8.896V11.455H7.89099ZM8.879 5.72702C8.879 6.22202 8.95198 6.658 9.09698 7.035C9.24198 7.41 9.45299 7.705 9.73199 7.918C10.01 8.128 10.351 8.233 10.754 8.233C11.175 8.233 11.526 8.122 11.807 7.901C12.091 7.676 12.304 7.37501 12.446 6.99701C12.591 6.61601 12.664 6.19302 12.664 5.72702C12.664 5.26702 12.593 4.852 12.45 4.483C12.311 4.111 12.1 3.81701 11.816 3.60101C11.534 3.38201 11.181 3.27301 10.754 3.27301C10.345 3.27301 10.002 3.37601 9.72299 3.58401C9.44499 3.78801 9.23499 4.07501 9.09299 4.44501C8.94999 4.81101 8.879 5.23902 8.879 5.72702ZM17.948 9.13602C17.317 9.13602 16.773 8.99702 16.316 8.71902C15.861 8.43702 15.51 8.045 15.263 7.543C15.019 7.037 14.896 6.44902 14.896 5.77802C14.896 5.10802 15.019 4.51701 15.263 4.00601C15.51 3.49101 15.854 3.09102 16.294 2.80402C16.737 2.51402 17.254 2.36902 17.845 2.36902C18.186 2.36902 18.523 2.42601 18.855 2.54001C19.188 2.65301 19.49 2.83802 19.763 3.09402C20.036 3.34702 20.253 3.682 20.415 4.099C20.577 4.517 20.658 5.031 20.658 5.642V6.06802H15.612V5.19901H19.635C19.635 4.83001 19.561 4.50002 19.414 4.21002C19.269 3.92002 19.061 3.69202 18.791 3.52402C18.524 3.35702 18.209 3.27301 17.845 3.27301C17.445 3.27301 17.098 3.37201 16.806 3.57101C16.516 3.76701 16.293 4.02301 16.137 4.33801C15.98 4.65301 15.902 4.99102 15.902 5.35202V5.93201C15.902 6.42601 15.987 6.84503 16.158 7.18903C16.331 7.53003 16.571 7.79002 16.878 7.96902C17.185 8.14502 17.541 8.233 17.948 8.233C18.212 8.233 18.45 8.19601 18.664 8.12201C18.879 8.04501 19.066 7.93201 19.222 7.78101C19.378 7.62801 19.499 7.43702 19.584 7.21002L20.556 7.483C20.453 7.812 20.281 8.10202 20.04 8.35202C19.798 8.59902 19.5 8.79301 19.145 8.93201C18.79 9.06801 18.391 9.13602 17.948 9.13602ZM24.847 9.13602C24.233 9.13602 23.705 8.99103 23.262 8.70203C22.818 8.41203 22.477 8.013 22.239 7.504C22 6.996 21.881 6.41502 21.881 5.76102C21.881 5.09702 22.003 4.51001 22.247 4.00101C22.494 3.49001 22.838 3.09102 23.279 2.80402C23.722 2.51402 24.239 2.36902 24.83 2.36902C25.29 2.36902 25.705 2.455 26.074 2.625C26.443 2.795 26.746 3.034 26.982 3.341C27.218 3.648 27.364 4.00601 27.421 4.41501H26.415C26.338 4.11601 26.168 3.85201 25.904 3.62201C25.642 3.38901 25.29 3.27301 24.847 3.27301C24.455 3.27301 24.111 3.37502 23.816 3.58002C23.523 3.78102 23.294 4.067 23.129 4.436C22.968 4.803 22.887 5.23302 22.887 5.72702C22.887 6.23302 22.966 6.673 23.125 7.048C23.287 7.423 23.514 7.714 23.807 7.922C24.102 8.129 24.449 8.233 24.847 8.233C25.108 8.233 25.345 8.18702 25.558 8.09702C25.771 8.00602 25.952 7.87502 26.1 7.70502C26.247 7.53402 26.352 7.33 26.415 7.091H27.421C27.364 7.477 27.223 7.82501 26.999 8.13501C26.777 8.44201 26.483 8.68601 26.117 8.86801C25.753 9.04701 25.33 9.13602 24.847 9.13602ZM28.891 9V2.45502H29.896V9H28.891ZM29.402 1.36401C29.206 1.36401 29.037 1.29702 28.895 1.16302C28.756 1.03002 28.686 0.869007 28.686 0.682007C28.686 0.494007 28.756 0.334012 28.895 0.200012C29.037 0.0670122 29.206 0 29.402 0C29.598 0 29.766 0.0670122 29.905 0.200012C30.047 0.334012 30.118 0.494007 30.118 0.682007C30.118 0.869007 30.047 1.03002 29.905 1.16302C29.766 1.29702 29.598 1.36401 29.402 1.36401ZM33.665 9.15302C33.25 9.15302 32.873 9.07501 32.535 8.91901C32.197 8.76001 31.929 8.531 31.73 8.233C31.531 7.932 31.432 7.568 31.432 7.142C31.432 6.767 31.506 6.46301 31.653 6.23001C31.801 5.99401 31.998 5.81003 32.246 5.67603C32.493 5.54303 32.765 5.44302 33.064 5.37802C33.365 5.31002 33.667 5.256 33.971 5.216C34.369 5.165 34.692 5.12601 34.939 5.10101C35.189 5.07201 35.371 5.02602 35.484 4.96002C35.601 4.89502 35.659 4.78102 35.659 4.61902V4.58502C35.659 4.16502 35.544 3.83801 35.314 3.60501C35.086 3.37201 34.741 3.25601 34.278 3.25601C33.798 3.25601 33.422 3.36101 33.149 3.57101C32.876 3.78101 32.684 4.00602 32.574 4.24402L31.619 3.90302C31.79 3.50602 32.017 3.196 32.301 2.974C32.588 2.75 32.9 2.59401 33.238 2.50601C33.579 2.41501 33.915 2.36902 34.244 2.36902C34.454 2.36902 34.696 2.39501 34.969 2.44601C35.244 2.49401 35.51 2.59502 35.765 2.74902C36.024 2.90202 36.238 3.13402 36.409 3.44302C36.579 3.75302 36.665 4.16801 36.665 4.68701V9H35.659V8.11401H35.608C35.54 8.25601 35.426 8.40801 35.267 8.57001C35.108 8.73201 34.896 8.869 34.632 8.983C34.368 9.097 34.045 9.15302 33.665 9.15302ZM33.818 8.25C34.216 8.25 34.551 8.17202 34.824 8.01602C35.099 7.85902 35.307 7.658 35.446 7.41C35.588 7.163 35.659 6.90301 35.659 6.63101V5.71002C35.616 5.76102 35.523 5.80801 35.378 5.85101C35.236 5.89101 35.071 5.926 34.883 5.957C34.699 5.986 34.518 6.01103 34.342 6.03403C34.169 6.05403 34.028 6.07102 33.92 6.08502C33.659 6.11902 33.415 6.17501 33.187 6.25101C32.963 6.32501 32.781 6.43701 32.642 6.58801C32.506 6.73601 32.437 6.93702 32.437 7.19302C32.437 7.54302 32.567 7.80702 32.825 7.98602C33.086 8.16202 33.417 8.25 33.818 8.25ZM39.506 0.27301V9H38.5V0.27301H39.506ZM41.348 9V2.45502H42.354V9H41.348ZM41.859 1.36401C41.663 1.36401 41.494 1.29702 41.352 1.16302C41.213 1.03002 41.143 0.869007 41.143 0.682007C41.143 0.494007 41.213 0.334012 41.352 0.200012C41.494 0.0670122 41.663 0 41.859 0C42.055 0 42.223 0.0670122 42.362 0.200012C42.504 0.334012 42.575 0.494007 42.575 0.682007C42.575 0.869007 42.504 1.03002 42.362 1.16302C42.223 1.29702 42.055 1.36401 41.859 1.36401ZM44.008 9V8.233L47.724 3.46002V3.392H44.127V2.45502H49.019V3.25601L45.406 7.99402V8.06201H49.139V9H44.008ZM53.244 9.13602C52.614 9.13602 52.07 8.99702 51.612 8.71902C51.158 8.43702 50.807 8.045 50.56 7.543C50.316 7.037 50.193 6.44902 50.193 5.77802C50.193 5.10802 50.316 4.51701 50.56 4.00601C50.807 3.49101 51.151 3.09102 51.591 2.80402C52.034 2.51402 52.551 2.36902 53.142 2.36902C53.483 2.36902 53.82 2.42601 54.152 2.54001C54.485 2.65301 54.787 2.83802 55.06 3.09402C55.333 3.34702 55.55 3.682 55.712 4.099C55.874 4.517 55.955 5.031 55.955 5.642V6.06802H50.909V5.19901H54.932C54.932 4.83001 54.858 4.50002 54.71 4.21002C54.566 3.92002 54.358 3.69202 54.088 3.52402C53.821 3.35702 53.506 3.27301 53.142 3.27301C52.742 3.27301 52.395 3.37201 52.102 3.57101C51.813 3.76701 51.59 4.02301 51.433 4.33801C51.277 4.65301 51.199 4.99102 51.199 5.35202V5.93201C51.199 6.42601 51.284 6.84503 51.455 7.18903C51.628 7.53003 51.868 7.79002 52.175 7.96902C52.482 8.14502 52.838 8.233 53.244 8.233C53.509 8.233 53.747 8.19601 53.96 8.12201C54.176 8.04501 54.362 7.93201 54.519 7.78101C54.675 7.62801 54.796 7.43702 54.881 7.21002L55.852 7.483C55.75 7.812 55.578 8.10202 55.337 8.35202C55.095 8.59902 54.797 8.79301 54.442 8.93201C54.087 9.06801 53.688 9.13602 53.244 9.13602ZM59.956 9.13602C59.411 9.13602 58.929 8.99902 58.512 8.72302C58.094 8.44502 57.767 8.053 57.531 7.547C57.296 7.038 57.178 6.43702 57.178 5.74402C57.178 5.05702 57.296 4.46002 57.531 3.95502C57.767 3.44902 58.095 3.05802 58.516 2.78302C58.936 2.50702 59.422 2.36902 59.973 2.36902C60.399 2.36902 60.736 2.44 60.983 2.582C61.233 2.722 61.423 2.881 61.554 3.06C61.688 3.236 61.791 3.38102 61.865 3.49402H61.95V0.27301H62.956V9H61.985V7.99402H61.865C61.791 8.11402 61.686 8.26401 61.55 8.44601C61.414 8.62501 61.219 8.78501 60.966 8.92801C60.713 9.06701 60.377 9.13602 59.956 9.13602ZM60.093 8.233C60.496 8.233 60.837 8.128 61.115 7.918C61.394 7.705 61.605 7.41 61.75 7.035C61.895 6.658 61.968 6.22202 61.968 5.72702C61.968 5.23902 61.896 4.81101 61.754 4.44501C61.612 4.07501 61.402 3.78801 61.124 3.58401C60.845 3.37601 60.502 3.27301 60.093 3.27301C59.666 3.27301 59.311 3.38201 59.027 3.60101C58.746 3.81701 58.534 4.111 58.392 4.483C58.253 4.852 58.183 5.26702 58.183 5.72702C58.183 6.19302 58.254 6.61601 58.396 6.99701C58.541 7.37501 58.754 7.676 59.036 7.901C59.32 8.122 59.672 8.233 60.093 8.233ZM68.449 9V0.27301H71.398C72.08 0.27301 72.639 0.389009 73.077 0.622009C73.514 0.852009 73.838 1.16902 74.048 1.57202C74.259 1.97602 74.364 2.43501 74.364 2.94901C74.364 3.46301 74.259 3.91902 74.048 4.31702C73.838 4.71402 73.516 5.027 73.081 5.254C72.646 5.479 72.091 5.591 71.415 5.591H69.029V4.63602H71.381C71.847 4.63602 72.222 4.56801 72.506 4.43201C72.793 4.29501 73 4.10202 73.128 3.85202C73.259 3.59902 73.324 3.29801 73.324 2.94901C73.324 2.59901 73.259 2.29402 73.128 2.03302C72.997 1.77102 72.789 1.57001 72.502 1.42801C72.215 1.28301 71.835 1.21002 71.364 1.21002H69.506V9H68.449ZM72.557 5.08002L74.705 9H73.477L71.364 5.08002H72.557ZM78.577 9.13602C77.986 9.13602 77.468 8.99602 77.022 8.71402C76.579 8.43302 76.232 8.04003 75.982 7.53403C75.735 7.02803 75.611 6.43702 75.611 5.76102C75.611 5.08002 75.735 4.48401 75.982 3.97601C76.232 3.46701 76.579 3.07202 77.022 2.79102C77.468 2.51002 77.986 2.36902 78.577 2.36902C79.168 2.36902 79.685 2.51002 80.128 2.79102C80.574 3.07202 80.921 3.46701 81.168 3.97601C81.418 4.48401 81.543 5.08002 81.543 5.76102C81.543 6.43702 81.418 7.02803 81.168 7.53403C80.921 8.04003 80.574 8.43302 80.128 8.71402C79.685 8.99602 79.168 9.13602 78.577 9.13602ZM78.577 8.233C79.026 8.233 79.395 8.118 79.685 7.888C79.975 7.658 80.189 7.35501 80.329 6.98001C80.468 6.60501 80.537 6.19902 80.537 5.76102C80.537 5.32402 80.468 4.91602 80.329 4.53802C80.189 4.16002 79.975 3.85501 79.685 3.62201C79.395 3.38901 79.026 3.27301 78.577 3.27301C78.128 3.27301 77.759 3.38901 77.469 3.62201C77.18 3.85501 76.965 4.16002 76.826 4.53802C76.687 4.91602 76.617 5.32402 76.617 5.76102C76.617 6.19902 76.687 6.60501 76.826 6.98001C76.965 7.35501 77.18 7.658 77.469 7.888C77.759 8.118 78.128 8.233 78.577 8.233ZM85.004 9.15302C84.59 9.15302 84.213 9.07501 83.875 8.91901C83.537 8.76001 83.269 8.531 83.07 8.233C82.871 7.932 82.771 7.568 82.771 7.142C82.771 6.767 82.845 6.46301 82.993 6.23001C83.141 5.99401 83.338 5.81003 83.585 5.67603C83.833 5.54303 84.105 5.44302 84.404 5.37802C84.705 5.31002 85.007 5.256 85.311 5.216C85.709 5.165 86.031 5.12601 86.279 5.10101C86.529 5.07201 86.71 5.02602 86.824 4.96002C86.941 4.89502 86.999 4.78102 86.999 4.61902V4.58502C86.999 4.16502 86.884 3.83801 86.654 3.60501C86.426 3.37201 86.081 3.25601 85.618 3.25601C85.138 3.25601 84.762 3.36101 84.489 3.57101C84.216 3.78101 84.024 4.00602 83.914 4.24402L82.959 3.90302C83.129 3.50602 83.357 3.196 83.641 2.974C83.928 2.75 84.24 2.59401 84.578 2.50601C84.919 2.41501 85.254 2.36902 85.584 2.36902C85.794 2.36902 86.036 2.39501 86.308 2.44601C86.584 2.49401 86.85 2.59502 87.105 2.74902C87.364 2.90202 87.578 3.13402 87.749 3.44302C87.919 3.75302 88.004 4.16801 88.004 4.68701V9H86.999V8.11401H86.948C86.879 8.25601 86.766 8.40801 86.607 8.57001C86.448 8.73201 86.236 8.869 85.972 8.983C85.708 9.097 85.385 9.15302 85.004 9.15302ZM85.158 8.25C85.556 8.25 85.891 8.17202 86.164 8.01602C86.439 7.85902 86.646 7.658 86.786 7.41C86.928 7.163 86.999 6.90301 86.999 6.63101V5.71002C86.956 5.76102 86.862 5.80801 86.718 5.85101C86.575 5.89101 86.411 5.926 86.223 5.957C86.039 5.986 85.858 6.01103 85.682 6.03403C85.509 6.05403 85.368 6.07102 85.26 6.08502C84.999 6.11902 84.754 6.17501 84.527 6.25101C84.303 6.32501 84.121 6.43701 83.982 6.58801C83.845 6.73601 83.777 6.93702 83.777 7.19302C83.777 7.54302 83.906 7.80702 84.165 7.98602C84.426 8.16202 84.757 8.25 85.158 8.25ZM92.312 9.13602C91.766 9.13602 91.285 8.99902 90.867 8.72302C90.449 8.44502 90.123 8.053 89.887 7.547C89.651 7.038 89.533 6.43702 89.533 5.74402C89.533 5.05702 89.651 4.46002 89.887 3.95502C90.123 3.44902 90.451 3.05802 90.871 2.78302C91.292 2.50702 91.778 2.36902 92.329 2.36902C92.755 2.36902 93.091 2.44 93.339 2.582C93.589 2.722 93.779 2.881 93.91 3.06C94.043 3.236 94.147 3.38102 94.221 3.49402H94.306V0.27301H95.312V9H94.34V7.99402H94.221C94.147 8.11402 94.042 8.26401 93.905 8.44601C93.769 8.62501 93.574 8.78501 93.322 8.92801C93.069 9.06701 92.732 9.13602 92.312 9.13602ZM92.448 8.233C92.851 8.233 93.192 8.128 93.471 7.918C93.749 7.705 93.961 7.41 94.106 7.035C94.251 6.658 94.323 6.22202 94.323 5.72702C94.323 5.23902 94.252 4.81101 94.11 4.44501C93.968 4.07501 93.758 3.78801 93.479 3.58401C93.201 3.37601 92.857 3.27301 92.448 3.27301C92.022 3.27301 91.667 3.38201 91.383 3.60101C91.101 3.81701 90.89 4.111 90.748 4.483C90.608 4.852 90.539 5.26702 90.539 5.72702C90.539 6.19302 90.61 6.61601 90.752 6.99701C90.897 7.37501 91.11 7.676 91.391 7.901C91.675 8.122 92.028 8.233 92.448 8.233ZM100.805 9V0.27301H103.856C104.464 0.27301 104.965 0.378013 105.36 0.588013C105.755 0.795013 106.049 1.07501 106.242 1.42801C106.435 1.77701 106.532 2.165 106.532 2.591C106.532 2.966 106.465 3.27602 106.331 3.52002C106.201 3.76402 106.028 3.957 105.812 4.099C105.599 4.241 105.367 4.34701 105.117 4.41501V4.5C105.384 4.517 105.653 4.61101 105.922 4.78101C106.192 4.95201 106.418 5.19601 106.6 5.51401C106.782 5.83201 106.873 6.22201 106.873 6.68201C106.873 7.11901 106.773 7.513 106.574 7.862C106.376 8.212 106.062 8.48902 105.633 8.69302C105.204 8.89802 104.645 9 103.958 9H100.805ZM101.861 8.06201H103.958C104.648 8.06201 105.138 7.92902 105.428 7.66202C105.721 7.39202 105.867 7.06501 105.867 6.68201C105.867 6.38601 105.792 6.11401 105.641 5.86401C105.491 5.61101 105.276 5.409 104.998 5.259C104.719 5.105 104.39 5.02802 104.009 5.02802H101.861V8.06201ZM101.861 4.108H103.822C104.14 4.108 104.427 4.04501 104.682 3.92001C104.941 3.79501 105.145 3.619 105.296 3.392C105.449 3.165 105.526 2.898 105.526 2.591C105.526 2.207 105.393 1.88202 105.126 1.61502C104.858 1.34502 104.435 1.21002 103.856 1.21002H101.861V4.108ZM108.473 9V2.45502H109.479V9H108.473ZM108.984 1.36401C108.788 1.36401 108.619 1.29702 108.477 1.16302C108.338 1.03002 108.268 0.869007 108.268 0.682007C108.268 0.494007 108.338 0.334012 108.477 0.200012C108.619 0.0670122 108.788 0 108.984 0C109.18 0 109.348 0.0670122 109.487 0.200012C109.629 0.334012 109.7 0.494007 109.7 0.682007C109.7 0.869007 109.629 1.03002 109.487 1.16302C109.348 1.29702 109.18 1.36401 108.984 1.36401ZM112.258 6.61401L112.241 5.36902H112.445L115.309 2.45502H116.553L113.502 5.54001H113.417L112.258 6.61401ZM111.32 9V0.27301H112.326V9H111.32ZM115.48 9L112.923 5.76102L113.639 5.06201L116.758 9H115.48ZM120.323 9.13602C119.692 9.13602 119.148 8.99702 118.691 8.71902C118.236 8.43702 117.885 8.045 117.638 7.543C117.394 7.037 117.271 6.44902 117.271 5.77802C117.271 5.10802 117.394 4.51701 117.638 4.00601C117.885 3.49101 118.229 3.09102 118.669 2.80402C119.112 2.51402 119.629 2.36902 120.22 2.36902C120.561 2.36902 120.898 2.42601 121.23 2.54001C121.563 2.65301 121.865 2.83802 122.138 3.09402C122.411 3.34702 122.628 3.682 122.79 4.099C122.952 4.517 123.033 5.031 123.033 5.642V6.06802H117.987V5.19901H122.01C122.01 4.83001 121.936 4.50002 121.789 4.21002C121.644 3.92002 121.436 3.69202 121.166 3.52402C120.899 3.35702 120.584 3.27301 120.22 3.27301C119.82 3.27301 119.473 3.37201 119.181 3.57101C118.891 3.76701 118.668 4.02301 118.512 4.33801C118.355 4.65301 118.277 4.99102 118.277 5.35202V5.93201C118.277 6.42601 118.362 6.84503 118.533 7.18903C118.706 7.53003 118.946 7.79002 119.253 7.96902C119.56 8.14502 119.916 8.233 120.323 8.233C120.587 8.233 120.825 8.19601 121.039 8.12201C121.254 8.04501 121.441 7.93201 121.597 7.78101C121.753 7.62801 121.874 7.43702 121.959 7.21002L122.931 7.483C122.828 7.812 122.656 8.10202 122.415 8.35202C122.173 8.59902 121.875 8.79301 121.52 8.93201C121.165 9.06801 120.766 9.13602 120.323 9.13602Z" fill="var(--fill-0, black)"/>
</svg>
